<svg width="550" height="327" viewBox="0 0 550 327" fill="none" xmlns="http://www.w3.org/2000/svg">
<g filter="url(#filter0_d_8_2)">
<path d="M135.289 171.962H139.464C139.464 171.962 148.971 148.748 169.142 163.608C169.142 163.608 171.925 156.258 183.944 156.952M151.909 195.561C151.909 195.561 151.909 188.141 170.923 187.02C170.923 187.02 177.108 173.222 199.673 182.969C199.673 182.969 207.708 179.088 215.749 181.501M165.356 129.564L227.496 158.655V143.954L173.855 129.564H165.356ZM165.356 129.564H151.909L177.46 149.581M221.62 196.26L213.739 177.999L177.46 149.581M177.46 149.581L152.527 148.753L151.909 145.193L165.356 141.013M204.227 170.548H165.356V165.621L187.708 157.609M228.423 133.434C228.423 133.434 216.213 119.507 206.626 135.291C206.626 135.291 195.471 126.767 189.686 133.813M193.077 107.294L211.867 93.9229L215.717 92.6258M200.521 108.677L202.366 102.88M206.941 105.026L207.826 100.558M194.058 98.2946L198.335 99.976M199.865 94.0243L204.541 94.857M179.875 78.5019H183.842C208.882 78.5019 229.18 98.8227 229.18 123.89V174.241C229.18 199.308 208.882 219.629 183.842 219.629H179.875C154.836 219.629 134.537 199.308 134.537 174.241V123.89C134.537 98.8227 154.836 78.5019 179.875 78.5019ZM179.566 54.1293H185.234C218.884 54.1293 246.163 81.4379 246.163 115.125V182.312C246.163 215.999 218.884 243.308 185.234 243.308H179.566C145.916 243.308 118.637 215.999 118.637 182.312V115.125C118.637 81.4379 145.916 54.1293 179.566 54.1293ZM543.748 2.51777C544.084 2.51777 544.084 2 543.748 2C543.412 2 543.412 2.51777 543.748 2.51777ZM47.6142 260.923C46.9935 259.021 46.1753 257.317 45.1597 255.81C44.1628 254.285 42.9685 252.986 41.5767 251.913C40.2036 250.84 38.6425 250.021 36.8933 249.456C35.1442 248.891 33.2257 248.608 31.138 248.608C27.7148 248.608 24.602 249.493 21.7995 251.263C18.9971 253.033 16.7683 255.641 15.1131 259.087C13.458 262.532 12.6304 266.76 12.6304 271.768C12.6304 276.777 13.4674 281.004 15.1414 284.449C16.8153 287.895 19.0817 290.503 21.9406 292.273C24.7995 294.043 28.0157 294.928 31.5894 294.928C34.8996 294.928 37.815 294.222 40.3353 292.81C42.8744 291.379 44.8493 289.364 46.26 286.765C47.6894 284.148 48.4041 281.07 48.4041 277.53L50.5483 277.982H33.1693V271.768H55.1752V277.982C55.1752 282.745 54.1595 286.888 52.1282 290.409C50.1157 293.93 47.332 296.66 43.7772 298.599C40.2412 300.52 36.1786 301.48 31.5894 301.48C26.4735 301.48 21.9782 300.275 18.1037 297.865C14.248 295.455 11.2386 292.028 9.07562 287.584C6.93146 283.141 5.85938 277.869 5.85938 271.768C5.85938 267.193 6.47065 263.078 7.6932 259.426C8.93456 255.754 10.6837 252.628 12.9408 250.049C15.1978 247.469 17.8686 245.492 20.9532 244.118C24.0378 242.743 27.4327 242.056 31.138 242.056C34.1849 242.056 37.025 242.517 39.6582 243.44C42.3102 244.344 44.6706 245.633 46.7396 247.309C48.8273 248.966 50.5671 250.953 51.9589 253.269C53.3507 255.566 54.31 258.117 54.8366 260.923H47.6142ZM66.2557 300.689V257.307H72.6882V263.86H73.1396C73.9296 261.713 75.359 259.972 77.4279 258.635C79.4969 257.298 81.8291 256.63 84.4247 256.63C84.9137 256.63 85.525 256.639 86.2585 256.658C86.992 256.677 87.5469 256.705 87.9231 256.743V263.521C87.6974 263.464 87.1801 263.38 86.3714 263.267C85.5814 263.135 84.7444 263.069 83.8604 263.069C81.7539 263.069 79.873 263.512 78.2179 264.397C76.5816 265.263 75.2838 266.468 74.3245 268.012C73.3841 269.537 72.9139 271.279 72.9139 273.237V300.689H66.2557ZM112.666 301.593C108.49 301.593 104.888 300.671 101.86 298.825C98.8508 296.961 96.5279 294.363 94.8916 291.03C93.2741 287.679 92.4653 283.781 92.4653 279.337C92.4653 274.894 93.2741 270.977 94.8916 267.588C96.5279 264.18 98.8038 261.525 101.719 259.623C104.653 257.703 108.076 256.743 111.988 256.743C114.246 256.743 116.474 257.119 118.675 257.872C120.875 258.625 122.879 259.849 124.684 261.544C126.49 263.22 127.929 265.442 129.001 268.209C130.073 270.977 130.609 274.385 130.609 278.434V281.258H97.205V275.496H123.838C123.838 273.048 123.349 270.864 122.371 268.944C121.412 267.023 120.039 265.507 118.252 264.397C116.484 263.286 114.396 262.73 111.988 262.73C109.337 262.73 107.042 263.389 105.105 264.707C103.186 266.006 101.71 267.701 100.675 269.791C99.6407 271.881 99.1235 274.122 99.1235 276.513V280.354C99.1235 283.63 99.6878 286.408 100.816 288.686C101.964 290.945 103.553 292.668 105.584 293.854C107.616 295.022 109.976 295.606 112.666 295.606C114.415 295.606 115.995 295.361 117.405 294.871C118.835 294.363 120.067 293.61 121.101 292.612C122.136 291.595 122.935 290.334 123.499 288.827L129.932 290.635C129.255 292.819 128.117 294.739 126.518 296.396C124.919 298.035 122.944 299.315 120.593 300.238C118.242 301.141 115.6 301.593 112.666 301.593ZM158.906 301.593C154.731 301.593 151.129 300.671 148.101 298.825C145.091 296.961 142.769 294.363 141.132 291.03C139.515 287.679 138.706 283.781 138.706 279.337C138.706 274.894 139.515 270.977 141.132 267.588C142.769 264.18 145.044 261.525 147.96 259.623C150.894 257.703 154.317 256.743 158.229 256.743C160.486 256.743 162.715 257.119 164.916 257.872C167.116 258.625 169.119 259.849 170.925 261.544C172.73 263.22 174.169 265.442 175.241 268.209C176.313 270.977 176.849 274.385 176.849 278.434V281.258H143.446V275.496H170.078C170.078 273.048 169.589 270.864 168.611 268.944C167.652 267.023 166.279 265.507 164.492 264.397C162.724 263.286 160.637 262.73 158.229 262.73C155.577 262.73 153.282 263.389 151.345 264.707C149.427 266.006 147.95 267.701 146.916 269.791C145.881 271.881 145.364 274.122 145.364 276.513V280.354C145.364 283.63 145.928 286.408 147.057 288.686C148.204 290.945 149.793 292.668 151.825 293.854C153.856 295.022 156.217 295.606 158.906 295.606C160.655 295.606 162.235 295.361 163.646 294.871C165.075 294.363 166.307 293.61 167.342 292.612C168.376 291.595 169.176 290.334 169.74 288.827L176.172 290.635C175.495 292.819 174.357 294.739 172.759 296.396C171.16 298.035 169.185 299.315 166.834 300.238C164.483 301.141 161.84 301.593 158.906 301.593ZM193.636 274.592V300.689H186.978V257.307H193.41V264.086H193.975C194.99 261.883 196.533 260.113 198.601 258.776C200.67 257.42 203.341 256.743 206.614 256.743C209.548 256.743 212.115 257.345 214.316 258.55C216.517 259.736 218.228 261.544 219.451 263.973C220.673 266.383 221.284 269.433 221.284 273.124V300.689H214.626V273.576C214.626 270.168 213.742 267.513 211.974 265.611C210.206 263.69 207.78 262.73 204.695 262.73C202.57 262.73 200.67 263.191 198.996 264.114C197.341 265.037 196.034 266.383 195.075 268.153C194.116 269.923 193.636 272.069 193.636 274.592ZM243.269 300.689L230.066 257.307H237.062L246.429 290.522H246.88L256.134 257.307H263.244L272.385 290.409H272.836L282.203 257.307H289.199L275.996 300.689H269.451L259.971 267.362H259.294L249.815 300.689H243.269ZM310.754 301.706C308.008 301.706 305.516 301.188 303.278 300.153C301.039 299.098 299.262 297.583 297.945 295.606C296.629 293.61 295.971 291.2 295.971 288.375C295.971 285.89 296.46 283.875 297.438 282.331C298.416 280.768 299.723 279.544 301.359 278.659C302.995 277.775 304.801 277.116 306.776 276.682C308.77 276.231 310.773 275.873 312.785 275.609C315.418 275.27 317.553 275.016 319.19 274.847C320.845 274.658 322.048 274.348 322.801 273.915C323.572 273.482 323.958 272.728 323.958 271.655V271.429C323.958 268.642 323.196 266.477 321.672 264.933C320.168 263.389 317.882 262.617 314.817 262.617C311.638 262.617 309.146 263.314 307.34 264.707C305.535 266.101 304.265 267.588 303.532 269.17L297.212 266.91C298.34 264.274 299.845 262.222 301.726 260.753C303.626 259.266 305.695 258.23 307.933 257.646C310.19 257.044 312.409 256.743 314.591 256.743C315.983 256.743 317.581 256.912 319.387 257.251C321.212 257.571 322.97 258.239 324.663 259.256C326.374 260.273 327.794 261.808 328.923 263.86C330.051 265.912 330.616 268.661 330.616 272.107V300.689H323.958V294.815H323.619C323.168 295.756 322.415 296.764 321.362 297.837C320.309 298.91 318.907 299.823 317.158 300.576C315.409 301.33 313.274 301.706 310.754 301.706ZM311.77 295.719C314.403 295.719 316.622 295.201 318.428 294.165C320.252 293.13 321.625 291.793 322.547 290.155C323.487 288.516 323.958 286.794 323.958 284.986V278.885C323.675 279.224 323.055 279.535 322.095 279.817C321.155 280.081 320.064 280.316 318.823 280.524C317.6 280.712 316.406 280.881 315.24 281.032C314.092 281.164 313.161 281.277 312.447 281.371C310.716 281.597 309.099 281.964 307.594 282.472C306.108 282.962 304.905 283.706 303.983 284.704C303.08 285.683 302.629 287.02 302.629 288.714C302.629 291.03 303.485 292.781 305.196 293.967C306.926 295.135 309.118 295.719 311.77 295.719ZM345.505 316.958C344.376 316.958 343.37 316.864 342.486 316.675C341.602 316.506 340.991 316.336 340.652 316.167L342.345 310.292C343.963 310.707 345.392 310.857 346.633 310.744C347.875 310.631 348.975 310.076 349.934 309.078C350.912 308.099 351.806 306.508 352.615 304.305L353.856 300.915L337.831 257.307H345.054L357.016 291.877H357.467L369.429 257.307H376.652L358.257 307.016C357.43 309.257 356.404 311.111 355.182 312.58C353.959 314.067 352.539 315.169 350.922 315.884C349.323 316.6 347.517 316.958 345.505 316.958ZM214.192 100.814C213.664 103.75 211.387 105.538 209.553 106.979C206.311 109.525 202.963 110.203 200.585 110.657C194.554 111.805 188.364 110.94 188.364 110.94C188.364 110.94 189.963 107.839 190.71 105.026C191.499 102.047 190.678 101.892 191.286 99.5277C192.459 94.9531 196.399 92.2308 197.898 91.1953C200.137 89.6473 201.998 89.1135 203.501 88.6812C205.586 88.0833 206.519 88.1634 207.266 88.4356C208.524 88.8947 209.228 89.8982 209.708 90.6135C213.024 95.6043 214.683 98.0971 214.197 100.809L214.192 100.814Z" stroke="black" stroke-width="2.62" stroke-miterlimit="10" shape-rendering="crispEdges"/>
</g>
<defs>
<filter id="filter0_d_8_2" x="0.548828" y="0.689941" width="548.762" height="325.578" filterUnits="userSpaceOnUse" color-interpolation-filters="sRGB">
<feFlood flood-opacity="0" result="BackgroundImageFix"/>
<feColorMatrix in="SourceAlpha" type="matrix" values="0 0 0 0 0 0 0 0 0 0 0 0 0 0 0 0 0 0 127 0" result="hardAlpha"/>
<feOffset dy="4"/>
<feGaussianBlur stdDeviation="2"/>
<feComposite in2="hardAlpha" operator="out"/>
<feColorMatrix type="matrix" values="0 0 0 0 0 0 0 0 0 0 0 0 0 0 0 0 0 0 0.25 0"/>
<feBlend mode="normal" in2="BackgroundImageFix" result="effect1_dropShadow_8_2"/>
<feBlend mode="normal" in="SourceGraphic" in2="effect1_dropShadow_8_2" result="shape"/>
</filter>
</defs>
</svg>
